<svg xmlns="http://www.w3.org/2000/svg" enable-background="new 0 0 96 96" viewBox="0 0 96 96"><path fill="#202b37" fill-rule="evenodd" d="M73.837,86.877L81,63l-12-4.571V45H54v-6v-3v-6h-9v6v3v6H30
		v13.429L18,63l7.163,23.877h0.001C18.735,89.577,11.479,93,3,93H0v3h3c7.561,0,14.082-2.438,20.92-5.338
		c3.874-1.643,9.854-4.499,14.126-3.911c4.144,0.571,6.922,4.365,8.849,7.738L47.759,96h3.482l0.864-1.512
		c1.927-3.373,4.706-7.167,8.849-7.738c4.272-0.589,10.252,2.268,14.126,3.911C81.918,93.562,88.439,96,96,96v-3
		C87.521,93,80.265,89.577,73.837,86.877z M48,33h3v3h-3V33z M48,39h3v6h-3V39z M48,90.608c-6.01-8.73-12.449-7.805-20.045-4.865
		l-6.28-20.933L48,54.782V90.608z M33,57.285V48h12h9h12v9.286L49.5,51L33,57.285z M51,90.608V54.782L77.325,64.81l-6.28,20.933
		C63.449,82.803,57.01,81.878,51,90.608z M28.625,67.094l3.746,12.486c0.237,0.791-0.214,1.631-1.006,1.868
		c-0.792,0.237-1.631-0.215-1.868-1.006l-3.746-12.486c-0.237-0.791,0.215-1.631,1.006-1.868
		C27.548,65.851,28.388,66.303,28.625,67.094z M64.575,93.276c-1.764-0.8-3.065-0.881-4.396,0.672
		c-0.537,0.627-1.488,0.701-2.115,0.163c-0.627-0.538-0.701-1.488-0.163-2.115c2.227-2.599,4.926-2.807,7.914-1.452
		c0.752,0.341,1.088,1.233,0.747,1.986C66.219,93.281,65.327,93.617,64.575,93.276z M34.425,93.276
		c1.764-0.8,3.065-0.881,4.397,0.672c0.538,0.627,1.488,0.701,2.115,0.163c0.627-0.538,0.701-1.488,0.163-2.115
		c-2.227-2.599-4.926-2.807-7.914-1.452c-0.752,0.341-1.088,1.233-0.747,1.986C32.781,93.281,33.673,93.617,34.425,93.276z" clip-rule="evenodd"/></svg>