<svg xmlns="http://www.w3.org/2000/svg" xmlns:xlink="http://www.w3.org/1999/xlink" aria-hidden="true" focusable="false" width="22" height="22" style="-ms-transform: rotate(360deg); -webkit-transform: rotate(360deg); transform: rotate(360deg);margin-right: 8px;" preserveAspectRatio="xMidYMid meet" viewBox="0 0 32 32"><path d="M9.5 15A1.5 1.5 0 1 1 8 16.5A1.5 1.5 0 0 1 9.5 15m0-2a3.5 3.5 0 1 0 3.5 3.5A3.5 3.5 0 0 0 9.5 13z" fill="#c90201"></path><path d="M25 14h-8a2 2 0 0 0-2 2v6H4V10.6l12-6.46l12.53 6.74l.94-1.76l-13-7a1 1 0 0 0-.94 0l-13 7A1 1 0 0 0 2 10v20h2v-6h24v6h2V19a5 5 0 0 0-5-5zm-8 8v-6h8a3 3 0 0 1 3 3v3z" fill="#c90201"></path><rect x="0" y="0" width="36" height="36" fill="rgba(0, 0, 0, 0)"></rect></svg>