<svg xmlns="http://www.w3.org/2000/svg" xmlns:xlink="http://www.w3.org/1999/xlink" aria-hidden="true" role="img" style="vertical-align: -0.125em;" width="1.17em" height="1em" preserveAspectRatio="xMidYMid meet" viewBox="0 0 28 24"><path d="M5.216 11.998a2.608 2.608 0 1 1-5.217 0a2.608 2.608 0 0 1 5.217 0z" fill="currentColor"/><path d="M5.216 2.608a2.608 2.608 0 1 1-5.217 0a2.608 2.608 0 0 1 5.217 0z" fill="currentColor"/><path d="M5.216 21.389a2.608 2.608 0 1 1-5.217 0a2.608 2.608 0 0 1 5.217 0z" fill="currentColor"/><path d="M9.794 0h15.247a2.61 2.61 0 1 1 0 5.22H9.794a2.61 2.61 0 1 1 0-5.22z" fill="currentColor"/><path d="M9.794 9.39h15.247a2.61 2.61 0 1 1 0 5.22H9.794a2.61 2.61 0 1 1 0-5.22z" fill="currentColor"/><path d="M9.794 18.781h15.247a2.61 2.61 0 1 1 0 5.22H9.794a2.61 2.61 0 1 1 0-5.22z" fill="currentColor"/></svg>