<svg xmlns="http://www.w3.org/2000/svg" xmlns:xlink="http://www.w3.org/1999/xlink" width="20" height="18" viewBox="0 0 16 16"><defs><linearGradient id="a"><stop offset="0" stop-color="#f3f3f3"/><stop offset="1" stop-color="#dadedf"/></linearGradient><linearGradient id="c" x1="-935.994" x2="-921.994" y1="970.858" y2="970.858" gradientTransform="translate(239.994 296.992)" gradientUnits="userSpaceOnUse" xlink:href="#a"/><linearGradient id="d" x1="-688.008" x2="-678.993" y1="-128.511" y2="-128.511" gradientTransform="rotate(45 -2371.808 563.028)" gradientUnits="userSpaceOnUse" xlink:href="#b"/><linearGradient id="b"><stop offset="0" stop-color="#fc6a28"/><stop offset="1" stop-color="#f94045"/></linearGradient></defs><g transform="translate(697 -1259.85)"><circle cx="-689" cy="1267.851" style="marker:none" r="7" fill="url(#c)" color="#000" enable-background="accumulate" overflow="visible"/><path style="line-height:normal;text-indent:0;text-align:start;text-decoration-line:none;text-decoration-style:solid;text-decoration-color:#000;text-transform:none;block-progression:tb;white-space:normal;isolation:auto;mix-blend-mode:normal;solid-color:#000;solid-opacity:1" fill="url(#d)" fill-rule="evenodd" d="m -685.83225,1264.6467 a 1.0001,1.0001 0 0 0 -1.41288,0.024 l -1.75936,1.765 -1.76362,-1.7636 a 1.0001,1.0001 0 1 0 -1.41138,1.417 l 1.76362,1.7636 -1.76084,1.7665 a 1.0001,1.0001 0 1 0 1.42129,1.4072 l 1.75801,-1.7637 1.76224,1.7622 a 1.0001,1.0001 0 1 0 1.4128,-1.4156 l -1.76362,-1.7636 1.76083,-1.7665 a 1.0001,1.0001 0 0 0 -0.004,-1.4349 z" color="#000" enable-background="accumulate" font-family="sans-serif" font-weight="400" overflow="visible"/></g></svg>