<svg id="Layer_1" enable-background="new 0 0 512 512" height="512" viewBox="0 0 512 512" width="512" xmlns="http://www.w3.org/2000/svg"><g><path d="m444.445 383.488c-5.573 0-11.168-1-16.541-3.034l-339.483-128.954c-26.055-9.866-46.725-29.302-58.181-54.722-11.455-25.419-12.326-53.778-2.452-79.853.019-.05.038-.101.058-.151l19.983-51.509c3.995-10.297 15.58-15.406 25.88-11.412 10.298 3.995 15.407 15.582 11.412 25.88l-19.953 51.43c-6.062 16.063-5.516 33.525 1.54 49.181 7.065 15.678 19.814 27.667 35.896 33.756l339.484 128.954c3.19 1.208 5.9-.423 6.917-1.181 1.209-.902 3.203-2.88 2.975-5.995-1.772-24.162-13.781-40.634-35.699-48.961l-79.194-29.183c-7.584-2.795-12.741-9.88-13.068-17.957l-5.144-126.865c-1.731-19.644-5.971-34.169-12.604-43.178-3.288-4.466-7.755-4.384-9.521-4.141-1.851.254-5.063 1.232-6.91 4.871 0 0-21.734 103.926-22.104 104.903-7.598 20.062-26.745 32.439-47.026 32.441-5.902 0-11.895-1.047-17.733-3.258l-92.147-35.379c-10.312-3.959-15.461-15.528-11.502-25.84 3.959-10.311 15.531-15.461 25.839-11.502l92.062 35.347c4.824 1.828 10.285-.353 12.629-4.915 0 0 21.729-103.907 22.1-104.884 6.506-17.181 21.219-28.924 39.356-31.412 18.156-2.491 36.229 5.195 47.169 20.055 11.269 15.308 17.904 36.212 20.283 63.91.026.3 4.679 114.889 4.679 114.889l66.756 24.6c.056.021.111.041.167.063 36.735 13.911 58.578 43.555 61.504 83.473 1.169 15.936-5.915 31.256-18.948 40.98-8.441 6.297-18.422 9.552-28.479 9.553z"/><path d="m492 486.499h-472c-11.046 0-20-8.954-20-20s8.954-20 20-20h472c11.046 0 20 8.954 20 20s-8.954 20-20 20z"/></g></svg>