<svg xmlns="http://www.w3.org/2000/svg" width="14" height="12" viewBox="0 0 14 12">
    <g fill="none" fill-rule="evenodd" opacity=".5">
        <g fill="#000" fill-rule="nonzero">
            <g>
                <g>
                    <path d="M9.677 23.854c.276-.276.723-.276.999 0 .275.275.275.722 0 .998L9.41 26.118h10.225c.39 0 .706.316.706.705 0 .39-.316.706-.706.706H9.41l1.266 1.266c.275.276.275.722 0 .998-.138.138-.319.207-.5.207-.18 0-.36-.069-.499-.207l-2.47-2.47c-.276-.276-.276-.723 0-.999zm6.989-5.647c.275-.276.722-.276.998 0l2.47 2.47c.276.276.276.723 0 .998l-2.47 2.471c-.138.138-.319.207-.5.207-.18 0-.36-.069-.498-.207-.276-.276-.276-.722 0-.998l1.265-1.266H7.706c-.39 0-.706-.316-.706-.706 0-.39.316-.705.706-.705H17.93l-1.265-1.266c-.276-.276-.276-.723 0-.998z" transform="translate(-307 -369) translate(111 222) translate(189 129)"/>
                </g>
            </g>
        </g>
    </g>
</svg>
