<?xml version="1.0"?>
<svg xmlns="http://www.w3.org/2000/svg" id="Layer_1" data-name="Layer 1" viewBox="0 0 512 512" width="512" height="512"><title>Call Enquiry</title><path d="M325.266,389.859c-1.057-1.159-3.848-3.855-6.937-3.855-3.039,0-6.16,2.667-7.749,4.257l-1.988,1.988,62.157,62.158c.252-.264.516-.519.765-.784a7.042,7.042,0,0,1,.739-.786c5.668-6.025,5.589-10.449-.233-16.213l-46.5-46.5C325.431,390.036,325.347,389.948,325.266,389.859Z"/><path d="M162.086,241.768c6.2-6.2,6.2-9.975,0-16.171l-22.959-22.959c-.024-.026-.05-.051-.074-.076q-1.986-2.046-3.958-4.041-2.04-2.07-4.034-4.119c-5.471-5.651-10.1-10.331-14.89-14.81-.058-.054-.114-.109-.171-.165l-.266-.267c-1.736-1.736-4.428-3.822-7.314-3.822-2.367,0-5.1,1.384-7.916,4l-2.41,2.409,62.012,62.012C160.764,243.1,161.421,242.434,162.086,241.768Z"/><path d="M130.71,376.973A366.5,366.5,0,0,0,252.5,472.36c16.8,8.035,39.175,17.47,62.994,18.993,1.049.07,2.255.07,3.421.07,11.063,0,19.213-3.405,26.4-11.036a220.113,220.113,0,0,1,15.486-16.13l-62.11-62.108-16.873,16.873c-5.211,5.211-11.177,7.853-17.733,7.853a25.161,25.161,0,0,1-11.456-2.841c-.356-.178-.725-.394-1.087-.621l-.073-.046c-.139-.074-.276-.152-.409-.235-2.166-1.344-4.886-2.7-7.766-4.144A121.423,121.423,0,0,1,232.332,413c-27.563-17.431-52.485-40.076-76.178-69.22-.117-.128-.228-.26-.336-.4-13.3-16.891-21.98-31.072-28.135-45.979q-.093-.226-.17-.458l-.253-.761c-.012-.034-.023-.067-.033-.1-1.178-3.729-4.736-14.994,5.754-25.8a7.935,7.935,0,0,1,1.011-1l.03-.027c5.5-4.933,10.642-9.938,16.215-15.564L88.194,191.651,71.908,207.936a31.5,31.5,0,0,0-9.58,20.624c-1.184,14.453,1.591,29.757,9,49.6C83.752,311.722,102.618,343.114,130.71,376.973Z"/><polygon points="345.021 82.869 322.263 69.729 261.265 104.946 284.024 118.086 345.021 82.869"/><polygon points="322.26 140.162 383.259 104.944 359.021 90.952 298.023 126.169 322.26 140.162"/><polygon points="315 152.286 254 117.069 254 187.506 315 222.729 315 152.286"/><path d="M257.726,258.44a7,7,0,0,1,3.213,7.865l-8.813,32.572,35.819-25.1a7.013,7.013,0,0,1,5.586-1.089,127.8,127.8,0,1,0-35.805-14.245ZM240,104.947a7.124,7.124,0,0,1,3.631-6.062l75.066-43.3a7.06,7.06,0,0,1,7.032,0l74.886,43.3A6.894,6.894,0,0,1,404,104.947v86.6a6.884,6.884,0,0,1-3.367,6.062L325.7,240.919a6.911,6.911,0,0,1-6.953,0l-75.123-43.31A7.12,7.12,0,0,1,240,191.547Z"/><polygon points="329 222.733 390 187.506 390 117.066 329 152.286 329 222.733"/></svg>
