<?xml version="1.0" encoding="iso-8859-1"?>
<!-- Uploaded to: SVGRepo, www.svgrepo.com, Transformed by: SVGRepo Tools -->
<svg fill="#000000" height="800px" width="800px" version="1.1" id="Capa_1" xmlns="http://www.w3.org/2000/svg" xmlns:xlink="http://www.w3.org/1999/xlink" 
	 viewBox="0 0 60 60" xml:space="preserve">
<g>
	<path d="M46,54H17c-0.553,0-1,0.448-1,1s0.447,1,1,1h29c0.553,0,1-0.448,1-1S46.553,54,46,54z"/>
	<path d="M38,58H24c-0.553,0-1,0.448-1,1s0.447,1,1,1h14c0.553,0,1-0.448,1-1S38.553,58,38,58z"/>
	<path d="M57,50h-9.612c9.824-10.442,8.658-18.787,8.6-19.156l-0.091-0.576L51,28.432V15.876C51,14.29,49.71,13,48.124,13H37V3.198
		C37,1.435,35.565,0,33.802,0h-5.604C26.435,0,25,1.435,25,3.198V13H13.876C12.29,13,11,14.29,11,15.876v12.556l-4.897,1.837
		l-0.091,0.576c-0.057,0.369-1.224,8.714,8.6,19.156H3c-0.553,0-1,0.448-1,1s0.447,1,1,1h13.597h5.241h2.023h14.344h2.05h5.15H57
		c0.553,0,1-0.448,1-1S57.553,50,57,50z M42,17h2c0.553,0,1,0.448,1,1s-0.447,1-1,1h-2c-0.553,0-1-0.448-1-1S41.447,17,42,17z
		 M37,17h2c0.553,0,1,0.448,1,1s-0.447,1-1,1h-2c-0.553,0-1-0.448-1-1S36.447,17,37,17z M32,17h2c0.553,0,1,0.448,1,1s-0.447,1-1,1
		h-2c-0.553,0-1-0.448-1-1S31.447,17,32,17z M27,17h2c0.553,0,1,0.448,1,1s-0.447,1-1,1h-2c-0.553,0-1-0.448-1-1S26.447,17,27,17z
		 M22,17h2c0.553,0,1,0.448,1,1s-0.447,1-1,1h-2c-0.553,0-1-0.448-1-1S21.447,17,22,17z M17,17h2c0.553,0,1,0.448,1,1s-0.447,1-1,1
		h-2c-0.553,0-1-0.448-1-1S16.447,17,17,17z M37.85,50l-1.697-11.85C36.142,38.064,36.067,38,35.981,38h-9.963
		c-0.086,0-0.16,0.064-0.172,0.148L24.153,50h-2.02l1.733-12.133C24.018,36.803,24.942,36,26.019,36h9.963
		c1.076,0,2.001,0.803,2.152,1.868L39.868,50H37.85z M30.99,28.069l-18.645,6.869C12.231,34.98,12.115,35,12,35
		c-0.407,0-0.789-0.25-0.938-0.655c-0.19-0.518,0.074-1.093,0.593-1.284l19.355-7.131l18.353,7.137c0.515,0.2,0.77,0.78,0.569,1.294
		c-0.199,0.515-0.781,0.77-1.294,0.57L30.99,28.069z"/>
</g>
<g>
</g>
<g>
</g>
<g>
</g>
<g>
</g>
<g>
</g>
<g>
</g>
<g>
</g>
<g>
</g>
<g>
</g>
<g>
</g>
<g>
</g>
<g>
</g>
<g>
</g>
<g>
</g>
<g>
</g>
</svg>
