<svg xmlns="http://www.w3.org/2000/svg" width="26" height="26" viewBox="0 0 26 26"><g transform="translate(0 -1026.362)"><circle cx="37.045" cy="28.409" r="12.5" fill="#50b748" fill-rule="evenodd" transform="matrix(1.04 0 0 1.04 -25.527 1009.817)"/><path fill="#10a711" style="line-height:normal;text-indent:0;text-align:start;text-decoration-line:none;text-decoration-style:solid;text-decoration-color:#000;text-transform:none;block-progression:tb;isolation:auto;mix-blend-mode:normal" d="M 15.892578 25.662109 A 12.999996 12.999996 0 0 0 16.841797 25.419922 A 12.999996 12.999996 0 0 0 18.0625 24.974609 A 12.999996 12.999996 0 0 0 19.232422 24.408203 A 12.999996 12.999996 0 0 0 20.339844 23.728516 A 12.999996 12.999996 0 0 0 21.375 22.943359 A 12.999996 12.999996 0 0 0 22.326172 22.056641 A 12.999996 12.999996 0 0 0 23.183594 21.080078 A 12.999996 12.999996 0 0 0 23.939453 20.023438 A 12.999996 12.999996 0 0 0 24.585938 18.896484 A 12.999996 12.999996 0 0 0 25.117188 17.710938 A 12.999996 12.999996 0 0 0 25.525391 16.476562 A 12.999996 12.999996 0 0 0 25.810547 15.208984 A 12.999996 12.999996 0 0 0 25.816406 15.158203 L 20 9.3417969 L 19.611328 9.25 C 19.004461 9.1101918 18.40909 8.9632118 17.833984 8.796875 C 17.288046 8.6389316 16.762058 8.4601768 16.259766 8.2578125 C 16.237413 8.2488074 16.213657 8.2415356 16.191406 8.2324219 C 16.066481 8.1812539 15.947762 8.1231344 15.826172 8.0683594 C 15.680588 8.0027806 15.533022 7.9384273 15.392578 7.8671875 C 15.300037 7.8202372 15.213215 7.7663982 15.123047 7.7167969 C 14.977385 7.6366789 14.830494 7.5582601 14.691406 7.4707031 C 14.588169 7.4057127 14.491967 7.3330701 14.392578 7.2636719 C 14.264974 7.1745733 14.136522 7.0870949 14.015625 6.9902344 C 13.934906 6.925566 13.860781 6.8534919 13.783203 6.7851562 C 13.737961 6.7453057 13.694532 6.7032518 13.650391 6.6621094 L 12.988281 6 L 12.626953 6.40625 C 11.096736 8.12415 8.9725845 8.9345406 6.4394531 9.2441406 L 6 9.296875 L 6 9.7402344 C 6 12.320034 6.545688 14.8233 7.6757812 16.875 C 7.8789063 17.243758 8.1075697 17.592711 8.3496094 17.929688 C 8.4198413 18.027455 8.4890054 18.125901 8.5625 18.220703 C 8.613671 18.286724 8.6659995 18.351486 8.71875 18.416016 C 8.8370404 18.560697 8.9597219 18.701062 9.0859375 18.837891 C 9.1450122 18.901938 9.2028645 18.967051 9.2636719 19.029297 C 9.2881012 19.054303 9.3112288 19.080758 9.3359375 19.105469 L 15.892578 25.662109 z " color="#000" font-family="sans-serif" font-weight="400" transform="translate(0 1026.362)"/><path fill="#fff" style="line-height:normal;text-indent:0;text-align:start;text-decoration-line:none;text-decoration-style:solid;text-decoration-color:#000;text-transform:none;block-progression:tb;isolation:auto;mix-blend-mode:normal" d="m 7.9882812,0.36914062 -0.3613281,0.40625 C 6.0967361,2.4932906 3.9725845,3.3036812 1.4394531,3.6132812 L 1,3.6660156 1,4.109375 c 0,2.5798 0.5456879,5.0830656 1.6757812,7.134766 1.1300934,2.0516 2.8643448,3.65255 5.1816407,4.34375 l 0.1484375,0.04492 0.1484375,-0.05078 C 12.632392,14.134831 15,9.420875 15,4.109375 L 15,3.7109375 14.611328,3.6191406 C 12.146238,3.0512406 9.8726981,2.360725 8.3632812,0.765625 l -0.375,-0.39648438 z m 0.023438,1.33203128 c 1.6188962,1.5116 3.7452938,2.240125 5.9472648,2.765625 -0.104509,4.7816 -2.197185,8.7690311 -5.9628898,10.0820311 C 6.0347973,13.914028 4.5537739,12.579119 3.5527344,10.761719 2.5774758,8.9912187 2.0929098,6.7803687 2.0410156,4.4804688 4.3558877,4.1286688 6.4233893,3.2995719 8.0117188,1.7011719 Z M 10.669922,5.9824219 7.0234375,9.1738281 5.3535156,7.5058594 4.6464844,8.2128906 6.9765625,10.542969 11.330078,6.734375 10.669922,5.9824219 Z" color="#000" font-family="sans-serif" font-weight="400" overflow="visible" transform="translate(5 1031.993)"/></g></svg>