<svg height="390pt" viewBox="-35 0 390 390.632" width="390pt" xmlns="http://www.w3.org/2000/svg"><path d="m112.316406 93.265625 32-32v73.367187h32v-73.367187l32 32 22.625-22.632813-70.625-70.632812-70.625 70.632812zm0 0"/><path d="m144.316406 166.632812h32v64h-32zm0 0"/><path d="m1.914062 238.863281 22.628907-22.625 45.253906 45.253907-22.628906 22.625zm0 0"/><path d="m250.828125 261.496094 45.253906-45.253906 22.628907 22.625-45.253907 45.253906zm0 0"/><path d="m.316406 390.632812h320v-32h-49.28125c-7.800781-54.183593-54.40625-96-110.71875-96s-102.921875 41.816407-110.71875 96h-49.28125zm160-96c38.632813 0 70.960938 27.527344 78.390625 64h-156.78125c7.429688-36.472656 39.757813-64 78.390625-64zm0 0"/></svg>