<?xml version="1.0" encoding="iso-8859-1"?>
<!-- Generator: Adobe Illustrator 19.0.0, SVG Export Plug-In . SVG Version: 6.00 Build 0)  -->
<svg version="1.1" id="Capa_1" xmlns="http://www.w3.org/2000/svg" xmlns:xlink="http://www.w3.org/1999/xlink" x="0px" y="0px"
	 viewBox="0 0 512.018 512.018" style="enable-background:new 0 0 512.018 512.018;" xml:space="preserve">
<g>
	<g>
		<path d="M501.342,448.018h-10.667v-32c0-5.888-4.779-10.667-10.667-10.667h-32v-192h10.667c5.888,0,10.667-4.779,10.667-10.667
			v-32h32c4.821,0,9.045-3.221,10.283-7.893c1.28-4.651-0.747-9.557-4.907-12.011l-256-149.333
			c-3.477-2.005-7.744-1.92-11.115,0.213L4.937,150.994c-3.989,2.581-5.824,7.445-4.501,12.011c1.323,4.544,5.483,7.68,10.24,7.68
			h32v32c0,5.888,4.779,10.667,10.667,10.667h10.667v192h-32c-5.888,0-10.667,4.779-10.667,10.667v32H10.676
			c-5.888,0-10.667,4.779-10.667,10.667v42.667c0,5.888,4.779,10.667,10.667,10.667h490.667c5.888,0,10.667-4.779,10.667-10.667
			v-42.667C512.009,452.797,507.23,448.018,501.342,448.018z M170.676,405.351h-42.667v-192h42.667V405.351z M277.342,405.351
			h-42.667v-192h42.667V405.351z M384.009,405.351h-42.667v-192h42.667V405.351z M388.745,149.351l-143.147-83.52l-131.243,83.52
			H74.612L239.625,44.349c3.349-2.133,7.616-2.24,11.093-0.213l180.373,105.216H388.745z"/>
	</g>
</g>
<g>
</g>
<g>
</g>
<g>
</g>
<g>
</g>
<g>
</g>
<g>
</g>
<g>
</g>
<g>
</g>
<g>
</g>
<g>
</g>
<g>
</g>
<g>
</g>
<g>
</g>
<g>
</g>
<g>
</g>
</svg>
