<svg viewBox="0 0 32 32" xmlns="http://www.w3.org/2000/svg" fit="" height="100%" width="100%" preserveAspectRatio="xMidYMid meet" focusable="false"><path d="M31.313.693a3.056 3.056 0 00-2.125-.687 5.647 5.647 0 00-3.937 1.75l-6.562 6.622c-3.687-.25-13.185-.874-13.497-.874h-.125a2.346 2.346 0 00-1.5.563c-.75.625-2.312 2.063-2.312 2.063-.31.369-.485.831-.5 1.312.083.47.42.856.875 1 .375.124 6.623 2.5 9.498 3.5L7.19 20.062h-.692c-1.188 0-3.062-.061-3.75-.061H2.5c-.25 0-.687-.125-1.937.937l-.12.062c-.255.275-.41.627-.442 1-.007.364.155.71.438.938.188.188 3 1.937 5.312 3.374.563.875 3.124 4.937 3.25 5.187a1 1 0 00.874.5h.063a1.888 1.888 0 001.125-.563c1.063-1.188.875-1.688.875-1.938v-4.624l4.124-3.936c1 2.874 3.312 9.06 3.437 9.435.118.462.524.792 1 .813h.125a1.83 1.83 0 001.188-.5s1.437-1.562 2-2.312c.446-.443.675-1.06.624-1.687 0-.188-.625-9.686-.813-13.373l6.624-6.623c2.312-2.312 1.937-5.125 1.063-5.998l.004-.001zm-2.5 4.56l-6.623 6.624-.625.688.063.875c.125 1.874.313 5.249.5 8.123.125 2.625.312 5 .312 5.25 0 .124 0 .124-.124.312-.313.375-.813 1-1.313 1.5-.688-2-2.25-6.124-3.063-8.374l-1.062-2.999-2.25 2.25-4.124 3.937-.5.624-.063.75v4.375c.063.063.063.188.125.25 0-.063-.125-.063-.125-.063v-.187a.326.326 0 01-.125-.25c-.875-1.313-2-3.126-2.374-3.688l-.25-.438-.375-.25c-1.438-.874-3.125-1.874-4.124-2.56H2.63l-.063-.064a.22.22 0 00.125.063h1.5c.75.063 1.687.063 2.312.063h.688l.814-.063.562-.563 3.938-4.062 2.25-2.187-2.938-1.126a972.073 972.073 0 01-8.436-3.125c.5-.5 1.124-1 1.437-1.312.125-.063.188-.125.25-.125h.063c.25 0 3 .188 5.624.375 2.812.188 5.999.375 7.811.5l.875.063.688-.625 6.565-6.624a3.374 3.374 0 012.499-1.185c.236-.023.475.02.688.125.188.375.375 1.75-1.063 3.125l-.006-.001z" fill="#333" fill-rule="evenodd"></path></svg>