<svg id="Layer_1" enable-background="new 0 0 510 510" height="512" viewBox="0 0 510 510" width="512" xmlns="http://www.w3.org/2000/svg"><g><path d="m362.864 330h-133.578l-6.875-30h129.924v-30h-136.799l-30.132-131.485c-6.545-28.565-31.584-48.515-60.89-48.515h-2.155c-11.914 0-23.088 5.278-30.655 14.481-7.566 9.203-10.586 21.185-8.283 32.875l61.58 312.644h44.627l10 60h182.707v-30h-157.293l-5-30h168.575c21.349 0 38.718-17.369 38.718-38.718v-16.812c0-35.549-28.922-64.47-64.471-64.47zm34.471 81.282c0 4.807-3.911 8.718-8.718 8.718h-218.948l-56.815-288.441c-.769-3.906.938-6.704 2.022-8.024 1.086-1.32 3.501-3.535 7.482-3.535h2.155c15.232 0 28.246 10.369 31.648 25.216l49.223 214.784h157.48c19.007 0 34.471 15.463 34.471 34.47z"/><path d="m314.835 240c45.49 0 82.5-37.009 82.5-82.5v-75c0-45.491-37.01-82.5-82.5-82.5s-82.5 37.009-82.5 82.5v75c0 45.491 37.01 82.5 82.5 82.5zm0-30c-28.948 0-52.5-23.551-52.5-52.5v-22.5h105v22.5c0 28.949-23.552 52.5-52.5 52.5zm0-180c28.948 0 52.5 23.551 52.5 52.5v22.5h-37.5v-25h-30v25h-37.5v-22.5c0-28.949 23.552-52.5 52.5-52.5z"/></g></svg>