<svg xmlns="http://www.w3.org/2000/svg" width="38" height="37" viewBox="0 0 38 37">
    <g fill="none" fill-rule="evenodd">
        <g>
            <g>
                <g>
                    <path d="M0 0H36V36H0z" transform="translate(-449 -330) translate(440 324) translate(10 7)"/>
                    <g transform="translate(-449 -330) translate(440 324) translate(10 7) translate(.75 .75)">
                        <circle cx="21.287" cy="19.801" r="10.277" fill="#DBF3DA" fill-rule="nonzero"/>
                        <path fill="#626973" stroke="#FFF" stroke-width=".3" d="M23.8 0c1.29 0 2.34 1.05 2.34 2.34 0 1.095-.757 2.017-1.775 2.27h0V6.36c2.493.553 4.862 1.797 6.798 3.732 2.265 2.265 3.686 5.265 4.003 8.447.311 3.138-.457 6.314-2.165 8.944-.207.319-.633.41-.952.202-.318-.207-.41-.633-.202-.952 3.196-4.922 2.499-11.51-1.658-15.667-4.883-4.884-12.829-4.884-17.712 0-4.883 4.883-4.883 12.829 0 17.712 4.162 4.162 10.757 4.855 15.681 1.649.319-.208.745-.118.952.2.208.32.118.746-.2.953-2.25 1.465-4.902 2.242-7.587 2.242-.454 0-.91-.022-1.364-.067-3.185-.315-6.188-1.736-8.455-4.004-1.436-1.435-2.49-3.109-3.166-4.895h0-4.897c-.38 0-.688-.308-.688-.688 0-.38.308-.688.688-.688h4.458c-.228-.868-.372-1.754-.43-2.645h0-3.065c-.38 0-.688-.308-.688-.688 0-.38.308-.688.688-.688h3.043c.03-.889.144-1.775.342-2.646h0-7.1c-.38 0-.689-.308-.689-.688 0-.38.308-.688.688-.688h7.49c.31-.913.716-1.8 1.22-2.645h0H5.38c-.38 0-.688-.308-.688-.688 0-.38.308-.688.688-.688h4.904l.052.002c.357-.46.746-.903 1.169-1.326 1.93-1.93 4.291-3.172 6.777-3.727h0V4.61c-1.019-.253-1.775-1.175-1.775-2.27 0-1.29 1.05-2.34 2.34-2.34h0zm-2.467 9.245c5.887 0 10.676 4.79 10.676 10.676s-4.79 10.675-10.676 10.675-10.675-4.789-10.675-10.675c0-5.887 4.789-10.676 10.675-10.676zm9.343 19.33c.181 0 .358.074.487.202.128.128.201.305.201.486s-.073.359-.201.487c-.129.129-.306.202-.487.202s-.358-.073-.486-.202c-.129-.128-.202-.306-.202-.487 0-.18.073-.358.202-.486.128-.128.305-.202.486-.202zm-9.343-17.953c-5.127 0-9.299 4.171-9.299 9.299 0 5.127 4.172 9.299 9.3 9.299 5.127 0 9.298-4.172 9.298-9.3 0-5.127-4.171-9.298-9.299-9.298zm-.008 15.33c.38 0 .688.309.688.689h0v.638c0 .38-.308.688-.688.688-.38 0-.688-.308-.688-.688h0v-.638c0-.38.308-.688.688-.688zM.688 23.48c.181 0 .359.073.487.201s.201.306.201.487c0 .18-.073.358-.201.486s-.306.202-.487.202c-.18 0-.358-.074-.486-.202S0 24.35 0 24.167c0-.181.074-.359.202-.487s.305-.201.486-.201zm24.998-8.885c.27-.268.705-.268.973 0 .27.27.27.705 0 .974h0l-.1.1-3.308 3.308c.141.285.22.606.22.945 0 1.179-.959 2.138-2.138 2.138-1.179 0-2.138-.96-2.138-2.138 0-.34.08-.66.22-.945h0l-1.525-1.525c-.269-.27-.269-.705 0-.974.269-.268.704-.268.973 0h0l1.526 1.526c.285-.141.605-.22.944-.22.34 0 .66.079.945.22h0zm-4.353 4.565c-.42 0-.762.342-.762.762s.342.762.762.762.762-.342.762-.762-.342-.762-.762-.762zm7.358.082c.38 0 .688.308.688.688 0 .38-.308.688-.688.688h0-.638c-.38 0-.688-.308-.688-.688 0-.38.308-.688.688-.688h0zm-14.078-.017c.38 0 .688.308.688.688 0 .38-.308.688-.688.688h0-.638c-.38 0-.688-.308-.688-.688 0-.38.308-.688.688-.688h0zm6.729-7.35c.38 0 .688.309.688.689h0v.637c0 .38-.308.689-.688.689-.38 0-.689-.308-.689-.689h0v-.637c0-.38.309-.688.689-.688zm1.646-7.194h-3.331v1.447c1.106-.133 2.225-.134 3.331-.002h0V4.68zm.812-3.304h-4.955c-.53 0-.963.433-.963.964 0 .531.432.963.963.963H23.8c.531 0 .964-.432.964-.963 0-.531-.433-.964-.964-.964h0z"/>
                    </g>
                </g>
            </g>
        </g>
    </g>
</svg>
