<svg xmlns="http://www.w3.org/2000/svg" width="28" height="28" viewBox="0 0 28 28">
    <g fill="none" fill-rule="evenodd" opacity=".7">
        <g fill="#000" fill-rule="nonzero">
            <g>
                <g>
                    <path d="M18.009.992c-.428-.429-1.167-.47-2.138-.122-.667.24-1.368.642-1.703.977l-2.691 2.697L2.618 3.15.364 5.408l7.365 2.89-2.365 2.37-3.356.197-1.61 1.613 3.643 1.76-1.02 1.023.746.748 1.02-1.02 1.759 3.647 1.609-1.612.196-3.363 2.405-2.41 2.884 7.379 2.254-2.259-1.39-8.874 2.65-2.657c.336-.336.737-1.037.977-1.707.348-.972.306-1.713-.122-2.141zM2.252 5.012l.733-.733 7.568 1.19-2.009 2.013-6.292-2.47zm12.516 10.992l-.733.734-2.464-6.303 2.008-2.012 1.189 7.58zm2.369-13.228c-.202.564-.536 1.122-.729 1.316l-9.087 9.105-.197 3.363-.274.275-1.273-2.64.918-.919-.746-.748-.917.918-2.635-1.274.274-.274 3.356-.197 9.088-9.105c.193-.194.75-.528 1.313-.73.639-.23.978-.183 1.034-.126.057.056.104.396-.125 1.036z" transform="translate(-906 -755) translate(788 755) rotate(45 65.692 159.595)"/>
                </g>
            </g>
        </g>
    </g>
</svg>
