<svg id="SvgjsSvg1061" width="288" height="288" xmlns="http://www.w3.org/2000/svg" version="1.1" xmlns:xlink="http://www.w3.org/1999/xlink" xmlns:svgjs="http://svgjs.com/svgjs"><defs id="SvgjsDefs1062"></defs><g id="SvgjsG1063"><svg xmlns="http://www.w3.org/2000/svg" width="288" height="288" viewBox="0 0 32 32"><path d="M4 28h2v2a2 2 0 0 0 2 2h20a2 2 0 0 0 2-2V6a2 2 0 0 0-2-2h-2V2a2 2 0 0 0-2-2H4a2 2 0 0 0-2 2v24a2 2 0 0 0 2 2zm20-2H4V2h20v24zm4-20v24H8v-2h16a2 2 0 0 0 2-2V6h2zM10 7a1 1 0 0 0 1 1h10a1 1 0 0 0 0-2H11a1 1 0 0 0-1 1zm-3 7h14a1 1 0 0 0 0-2H7a1 1 0 0 0 0 2zm0 4h14a1 1 0 0 0 0-2H7a1 1 0 0 0 0 2zm0 4h14a1 1 0 0 0 0-2H7a1 1 0 0 0 0 2z" fill="#fff966" class="color000 svgShape"></path></svg></g></svg>