<svg xmlns="http://www.w3.org/2000/svg" width="24" height="24" viewBox="0 0 24 24">
    <g fill="none" fill-rule="evenodd" opacity=".87">
        <g>
            <g>
                <g>
                    <path d="M0 0H24V24H0z" transform="translate(-975 -523) translate(975 523)"/>
                </g>
                <path fill="#000" d="M19.197 7H5.303C4.584 7 4 7.673 4 8.5v9c0 .827.584 1.5 1.303 1.5h13.894c.719 0 1.303-.673 1.303-1.5v-9c0-.827-.584-1.5-1.303-1.5zm0 1c.026 0 .05.003.076.008l-6.541 5.021c-.252.193-.711.193-.963 0L5.228 8.008c.024-.005.05-.008.075-.008h13.895zm0 10H5.303c-.24 0-.435-.224-.435-.5V8.934l6.419 4.927c.27.207.616.311.963.311s.693-.104.963-.311l6.419-4.927V17.5c0 .276-.195.5-.435.5z" transform="translate(-975 -523) translate(975 523)"/>
            </g>
        </g>
    </g>
</svg>
