<svg version="1.1" id="Capa_1" xmlns="http://www.w3.org/2000/svg" xmlns:xlink="http://www.w3.org/1999/xlink" x="0px" y="0px"
viewBox="0 0 514 514" width="20" height="20" xml:space="preserve">
<linearGradient id="SVGID_1_" gradientUnits="userSpaceOnUse" x1="0" y1="0" x2="0" y2="0" gradientTransform="matrix(1 0 0 -1 0 514)">
	<stop  offset="0" style="stop-color:#1a3980"/>
	<stop  offset="0.021" style="stop-color:#1a3980"/>
	<stop  offset="0.293" style="stop-color:#1a3980"/>
	<stop  offset="0.554" style="stop-color:#1a3980"/>
	<stop  offset="0.796" style="stop-color:#1a3980"/>
	<stop  offset="1" style="stop-color:#1a3980"/>
</linearGradient>
<path style="fill:url(#SVGID_1_);" d="M472,332V80c0-22.056-17.944-40-40-40H80c-22.056,0-40,17.944-40,40v352
	c0,22.056,17.944,40,40,40h352c22.056,0,40-17.944,40-40c0-11.046,8.954-20,20-20s20,8.954,20,20c0,44.112-35.888,80-80,80H80
	c-44.112,0-80-35.888-80-80V80C0,35.888,35.888,0,80,0h352c44.112,0,80,35.888,80,80v252c0,11.046-8.954,20-20,20
	S472,343.046,472,332z M150,120v272c0,11.046,8.954,20,20,20s20-8.954,20-20V140h91c33.084,0,60,26.916,60,60s-26.916,60-60,60h-31
	c-11.046,0-20,8.954-20,20s8.954,20,20,20h31c55.14,0,100-44.86,100-100s-44.86-100-100-100H170C158.954,100,150,108.954,150,120"/>
</svg>