<svg xmlns="http://www.w3.org/2000/svg" width="24" height="24" viewBox="0 0 24 24">
    <g fill="none" fill-rule="evenodd" opacity=".87">
        <g>
            <g>
                <path d="M0 0H24V24H0z" transform="translate(-975 -555) translate(975 555)"/>
                <path fill="#000" d="M17.398 21c-1.595 0-3.291-.453-5.043-1.344-1.615-.821-3.21-1.998-4.613-3.401-1.403-1.404-2.579-3-3.4-4.615C3.452 9.89 3 8.194 3 6.6c0-1.033.964-2.031 1.377-2.412C4.972 3.64 5.91 3 6.59 3c.339 0 .735.221 1.25.697.382.354.813.835 1.245 1.39.26.334 1.558 2.043 1.558 2.863 0 .672-.761 1.14-1.566 1.634-.312.19-.634.389-.866.575-.249.199-.293.304-.3.328.855 2.129 3.468 4.74 5.598 5.593.018-.006.124-.048.326-.3.187-.232.385-.554.576-.865.495-.804.963-1.565 1.636-1.565.82 0 2.53 1.297 2.865 1.557.555.431 1.036.862 1.39 1.245.476.513.698.91.698 1.248 0 .68-.64 1.62-1.188 2.217-.382.416-1.38 1.383-2.415 1.383h.001zM6.641 3.981c-.24.004-.882.297-1.58.94-.663.61-1.075 1.274-1.075 1.731 0 5.992 7.362 13.356 13.351 13.356.457 0 1.121-.414 1.732-1.08.645-.702.937-1.346.941-1.586-.028-.169-.497-.827-1.779-1.813-1.102-.848-1.996-1.303-2.226-1.308-.016.004-.115.042-.318.299-.175.223-.363.529-.546.824-.499.811-.97 1.578-1.655 1.578-.11 0-.22-.021-.324-.063-2.338-.935-5.104-3.699-6.04-6.036-.112-.28-.13-.72.423-1.22.294-.267.7-.516 1.094-.759.296-.181.602-.37.825-.545.257-.203.295-.302.3-.318-.007-.23-.461-1.123-1.31-2.225C7.468 4.477 6.81 4.01 6.64 3.98v.003z" transform="translate(-975 -555) translate(975 555)"/>
            </g>
        </g>
    </g>
</svg>
