<svg xmlns="http://www.w3.org/2000/svg" width="24" height="24" viewBox="0 0 24 24">
    <g fill="none" fill-rule="evenodd" opacity=".87">
        <g>
            <g>
                <path d="M0 0H24V24H0z" transform="translate(-975 -439) translate(975 439)"/>
                <g fill="#000">
                    <path d="M9 10.371c-2.873 0-5.21-2.326-5.21-5.185C3.79 2.326 6.126 0 9 0c2.873 0 5.21 2.326 5.21 5.186S11.874 10.37 9 10.37zm0 .943c2.011 0 3.735.311 5.121.925 1.136.503 2.05 1.206 2.718 2.092C17.987 15.854 18 17.38 18 17.443c0 .78-.638 1.414-1.421 1.414H1.42C.638 18.857 0 18.223 0 17.443v-.04c.009-.259.102-1.666 1.16-3.072.668-.886 1.583-1.59 2.719-2.092 1.386-.614 3.11-.925 5.121-.925zm0 .943c-3.303 0-5.741.899-7.05 2.599C.97 16.129.949 17.432.948 17.445c0 .258.213.47.474.47H16.58c.261 0 .474-.212.474-.472 0-.011-.022-1.314-1.004-2.587-1.309-1.7-3.746-2.599-7.049-2.599zM9 .943c2.35 0 4.263 1.903 4.263 4.243 0 2.339-1.913 4.243-4.263 4.243-2.35 0-4.263-1.904-4.263-4.243C4.737 2.846 6.65.943 9 .943z" transform="translate(-975 -439) translate(975 439) translate(3 3)"/>
                </g>
            </g>
        </g>
    </g>
</svg>
